<?xml version="1.0" encoding="UTF-8"?>
<svg version="1.1" xmlns="http://www.w3.org/2000/svg" width="680" height="680">
<path d="M0 0 C1.2971846 -0.00858032 1.2971846 -0.00858032 2.62057495 -0.01733398 C18.48313456 -0.09087512 33.8028371 1.41661606 48.875 6.625 C49.7 6.89763672 50.525 7.17027344 51.375 7.45117188 C53.33728867 8.10146521 55.29433697 8.76754448 57.25 9.4375 C57.25 10.0975 57.25 10.7575 57.25 11.4375 C58.136875 11.56125 59.02375 11.685 59.9375 11.8125 C62.95387502 12.38162736 65.45326054 13.20364436 68.25 14.4375 C68.25 15.0975 68.25 15.7575 68.25 16.4375 C68.806875 16.59605469 69.36375 16.75460938 69.9375 16.91796875 C75.67957827 18.67357038 80.27458529 21.12055686 85.25 24.4375 C85.91 24.7675 86.57 25.0975 87.25 25.4375 C87.25 26.0975 87.25 26.7575 87.25 27.4375 C88.425625 27.9015625 88.425625 27.9015625 89.625 28.375 C92.25 29.4375 92.25 29.4375 94.25 30.4375 C94.25 31.0975 94.25 31.7575 94.25 32.4375 C94.82105469 32.70304687 95.39210938 32.96859375 95.98046875 33.2421875 C103.39053708 37.14490852 109.00678304 43.03472544 114.25 49.4375 C115.30924429 50.69026007 116.37160049 51.94039757 117.4375 53.1875 C117.92089844 53.75597656 118.40429688 54.32445312 118.90234375 54.91015625 C120.04284322 56.20272231 121.2640484 57.42338039 122.5 58.625 C124.29212525 60.48112972 125.13612054 62.13548246 126.25 64.4375 C126.745 64.911875 127.24 65.38625 127.75 65.875 C129.64903312 67.8531595 130.34899031 69.87308782 131.25 72.4375 C131.91 72.4375 132.57 72.4375 133.25 72.4375 C134.20921722 74.18701568 135.16733817 75.93713244 136.125 77.6875 C136.65867187 78.66203125 137.19234375 79.6365625 137.7421875 80.640625 C138.23976563 81.56359375 138.73734375 82.4865625 139.25 83.4375 C139.64445312 84.15421875 140.03890625 84.8709375 140.4453125 85.609375 C141.25 87.4375 141.25 87.4375 141.25 90.4375 C141.91 90.4375 142.57 90.4375 143.25 90.4375 C144.06756238 92.49799855 144.87884734 94.56098853 145.6875 96.625 C146.13996094 97.77355469 146.59242188 98.92210937 147.05859375 100.10546875 C148.06093301 102.90873233 148.77012795 105.50862576 149.25 108.4375 C149.92546875 108.49808594 150.6009375 108.55867188 151.296875 108.62109375 C152.63492188 108.74677734 152.63492188 108.74677734 154 108.875 C155.32257813 108.99681641 155.32257813 108.99681641 156.671875 109.12109375 C158.94350452 109.39988465 161.04851823 109.82540577 163.25 110.4375 C163.25 111.0975 163.25 111.7575 163.25 112.4375 C164.36375 112.623125 164.36375 112.623125 165.5 112.8125 C168.05141485 113.39236701 169.9767573 114.17458739 172.25 115.4375 C172.25 116.0975 172.25 116.7575 172.25 117.4375 C172.930625 117.623125 173.61125 117.80875 174.3125 118 C178.38656879 119.99369324 181.38376943 122.93524708 184.25 126.4375 C184.25 127.0975 184.25 127.7575 184.25 128.4375 C184.91 128.4375 185.57 128.4375 186.25 128.4375 C187.6171875 130.2734375 187.6171875 130.2734375 189.125 132.8125 C189.86363281 134.03066406 189.86363281 134.03066406 190.6171875 135.2734375 C191.42542969 136.83964844 191.42542969 136.83964844 192.25 138.4375 C192.60360596 139.0962915 192.95721191 139.75508301 193.3215332 140.43383789 C196.79572156 147.76049964 196.8288737 154.9612926 196.71655273 162.89428711 C196.6877718 165.10413087 196.6959427 167.31153569 196.70898438 169.52148438 C196.67816331 189.61233756 192.09979559 207.94500363 177.9453125 222.8671875 C162.8724916 236.68828625 146.79351194 239.26541593 126.95117188 238.61669922 C121.56677981 238.25949172 117.03995102 236.85127437 112.25 234.4375 C111.39792969 234.01339844 110.54585938 233.58929688 109.66796875 233.15234375 C100.00572818 227.82401139 90.44206361 220.42491896 87.25 209.4375 C86.87829932 203.77938966 87.80465907 198.48723877 88.75 192.9375 C93.04261314 165.61883138 87.85424203 137.13364232 72.015625 114.078125 C69.83982933 111.12204399 67.58686075 108.2674218 65.25 105.4375 C64.31414062 104.25607422 64.31414062 104.25607422 63.359375 103.05078125 C48.19498466 84.7961685 24.79751699 73.31110122 1.41015625 70.6796875 C-25.93915328 68.58369592 -50.13883223 77.90837601 -70.75 95.4375 C-88.09846768 110.5794853 -99.78462545 132.82760871 -103.75 155.4375 C-104.68675507 170.68850229 -104.1389278 186.03036649 -98.75 200.4375 C-98.55921875 201.09234375 -98.3684375 201.7471875 -98.171875 202.421875 C-96.60449606 207.76703906 -94.28674947 212.65216047 -91.8125 217.625 C-91.47645752 218.30248291 -91.14041504 218.97996582 -90.79418945 219.67797852 C-88.70309082 223.80199133 -86.37319658 227.61991178 -83.75 231.4375 C-83.275625 232.283125 -82.80125 233.12875 -82.3125 234 C-80.45085422 236.90416741 -78.21648272 239.02974305 -75.75 241.4375 C-74.986875 242.406875 -74.22375 243.37625 -73.4375 244.375 C-70.92056172 247.47338289 -67.97082875 249.66289925 -64.71484375 251.9453125 C-62.75 253.4375 -62.75 253.4375 -61.140625 255.6015625 C-57.30605725 258.54641028 -53.25214279 257.76950207 -48.5625 257.6875 C-37.93428708 257.80115203 -30.78615099 260.53708902 -21.58496094 265.52636719 C-17.54132464 267.53419724 -13.14941467 268.52531035 -8.75 269.4375 C-8.75 270.0975 -8.75 270.7575 -8.75 271.4375 C-8.14414062 271.49808594 -7.53828125 271.55867188 -6.9140625 271.62109375 C-3.34635417 271.97786458 0.22135417 272.33463542 3.7890625 272.69140625 C4.60117187 272.77261719 5.41328125 272.85382813 6.25 272.9375 C7.07757813 273.02644531 7.90515625 273.11539062 8.7578125 273.20703125 C10.3945942 273.35839507 12.03668826 273.46153067 13.6796875 273.51171875 C21.86688956 273.89099808 29.30400004 276.87405659 35.42578125 282.40234375 C37.16516426 284.34285456 38.72239643 286.32795222 40.25 288.4375 C41.013125 289.365625 41.77625 290.29375 42.5625 291.25 C49.25833342 303.89768536 46.42026804 320.10477452 42.40625 333.1875 C38.61192231 342.60789978 30.80959277 350.25431777 21.73046875 354.66015625 C9.46951666 359.78880038 -3.20828377 359.83324858 -15.75 355.4375 C-18.2085786 354.32143471 -20.63801799 353.18457284 -23.0625 352 C-34.75155835 346.31652007 -46.53808143 344.24634996 -59.30932617 342.57885742 C-71.04916058 340.96721088 -79.4054135 336.98076713 -87.75 328.4375 C-92.20119584 324.18863124 -96.88710191 320.61240781 -102 317.1875 C-108.29310307 312.94140832 -113.81490351 308.15066488 -119.26171875 302.87451172 C-120.75425479 301.43339178 -122.26658762 300.01546201 -123.78125 298.59765625 C-152.3242003 271.45936063 -171.07136105 229.46933389 -172.6953125 190.16015625 C-172.71335938 188.93167969 -172.73140625 187.70320312 -172.75 186.4375 C-172.76901367 185.61491699 -172.78802734 184.79233398 -172.80761719 183.94482422 C-173.86076857 135.12866775 -159.79009005 89.57648093 -126.0625 53.43359375 C-105.10039616 31.55535488 -76.56270156 13.41494079 -46.75 6.4375 C-45.43 6.4375 -44.11 6.4375 -42.75 6.4375 C-42.75 5.7775 -42.75 5.1175 -42.75 4.4375 C-28.49752686 0.7381327 -14.64712924 0.01723055 0 0 Z " fill="#32584F" transform="translate(341.75,179.5625)"/>
<path d="M0 0 C-0.99257813 0.47308594 -1.98515625 0.94617188 -3.0078125 1.43359375 C-37.10843384 17.92584813 -68.74249221 45.00678181 -83 81 C-83.70463483 82.54336061 -84.413042 84.08500389 -85.125 85.625 C-86.79267475 89.36085407 -87.98855558 93.03850936 -89 97 C-89.66 97 -90.32 97 -91 97 C-91.12375 97.86625 -91.2475 98.7325 -91.375 99.625 C-92 103 -92 103 -92.9375 105.75 C-94.35805233 110.09521889 -95.16602534 114.51073215 -96 119 C-96.66 119 -97.32 119 -98 119 C-98.02557126 126.02513848 -98.04295882 133.05026475 -98.05493164 140.07543945 C-98.05992846 142.46020964 -98.06672815 144.84497682 -98.07543945 147.22973633 C-98.08771052 150.67790475 -98.09327498 154.12603231 -98.09765625 157.57421875 C-98.10281754 158.62268478 -98.10797882 159.67115082 -98.11329651 160.75138855 C-98.11414372 172.1933755 -97.3251708 183.09787347 -94.4375 194.1875 C-93.97613701 196.01388738 -93.51641445 197.8406902 -93.05859375 199.66796875 C-92.85548584 200.45453857 -92.65237793 201.2411084 -92.44311523 202.05151367 C-92 204 -92 204 -92 206 C-91.34 206 -90.68 206 -90 206 C-88.05516381 210.16345999 -86.22468559 214.18551475 -85 218.625 C-84.05108588 221.82758514 -82.73934901 224.32696626 -81.0078125 227.16796875 C-79.59551118 229.7352917 -78.70477144 232.41996448 -77.80859375 235.203125 C-77.08404426 237.09989886 -77.08404426 237.09989886 -75.453125 238.53515625 C-73.28257149 240.72321423 -73.3308221 243.02260111 -73 246 C-72.34 246 -71.68 246 -71 246 C-70.773125 246.556875 -70.54625 247.11375 -70.3125 247.6875 C-69.05241829 250.15311307 -69.05241829 250.15311307 -66.71875 252.24609375 C-63.90076961 255.10051354 -61.55268329 258.15262038 -59.1875 261.375 C-55.22953814 266.6225362 -51.14942813 270.89103851 -46 275 C-44.31263141 276.41000738 -42.63383518 277.82977661 -40.95629883 279.25146484 C-39.79976239 280.23128826 -38.6408367 281.20830026 -37.47924805 282.18212891 C-35.35340985 283.96884301 -33.2569647 285.73768187 -31.3125 287.72265625 C-29.21475469 289.76421196 -26.62825149 290.77348264 -24 292 C-24 292.66 -24 293.32 -24 294 C-23.26007813 294.24105469 -22.52015625 294.48210937 -21.7578125 294.73046875 C-18.62953573 296.1705395 -17.14442462 297.74537519 -14.875 300.3125 C-8.15770651 307.31155916 0.32691116 310.72210492 9.90185547 311.5949707 C24.25517789 312.9246453 39.12358955 315.82342133 51.5234375 323.578125 C59.07697987 327.9148591 69.55261371 327.72406168 78 327 C81.30061832 326.01644692 81.30061832 326.01644692 84 324 C84.69480469 323.60941406 85.38960937 323.21882813 86.10546875 322.81640625 C93.52408307 318.4298554 98.07371431 312.52258379 101.4375 304.625 C103.04300319 294.27842387 102.67965106 284.45241299 96.33984375 275.7109375 C88.82266393 267.46828037 78.744754 264.20920161 67.9375 263.0625 C61.5459207 262.35300282 55.27316404 261.44883887 49 260 C49 259.34 49 258.68 49 258 C47.783125 257.87625 46.56625 257.7525 45.3125 257.625 C41.93520941 257.21108694 39.10243305 256.45426549 36 255 C39.63195496 253.78934835 41.06531629 254.37215185 44.6875 255.4375 C45.68136719 255.72496094 46.67523438 256.01242187 47.69921875 256.30859375 C48.83810547 256.65083984 48.83810547 256.65083984 50 257 C50 257.66 50 258.32 50 259 C50.60585938 259.06058594 51.21171875 259.12117188 51.8359375 259.18359375 C55.40364583 259.54036458 58.97135417 259.89713542 62.5390625 260.25390625 C63.35117187 260.33511719 64.16328125 260.41632813 65 260.5 C65.82757813 260.58894531 66.65515625 260.67789062 67.5078125 260.76953125 C69.1445942 260.92089507 70.78668826 261.02403067 72.4296875 261.07421875 C80.61688956 261.45349808 88.05400004 264.43655659 94.17578125 269.96484375 C95.91516426 271.90535456 97.47239643 273.89045222 99 276 C99.763125 276.928125 100.52625 277.85625 101.3125 278.8125 C108.00833342 291.46018536 105.17026804 307.66727452 101.15625 320.75 C97.36192231 330.17039978 89.55959277 337.81681777 80.48046875 342.22265625 C68.21951666 347.35130038 55.54171623 347.39574858 43 343 C40.5414214 341.88393471 38.11198201 340.74707284 35.6875 339.5625 C23.99844165 333.87902007 12.21191857 331.80884996 -0.55932617 330.14135742 C-12.29916058 328.52971088 -20.6554135 324.54326713 -29 316 C-33.45119584 311.75113124 -38.13710191 308.17490781 -43.25 304.75 C-49.54310307 300.50390832 -55.06490351 295.71316488 -60.51171875 290.43701172 C-62.00425479 288.99589178 -63.51658762 287.57796201 -65.03125 286.16015625 C-93.5742003 259.02186063 -112.32136105 217.03183389 -113.9453125 177.72265625 C-113.96335938 176.49417969 -113.98140625 175.26570312 -114 174 C-114.01901367 173.17741699 -114.03802734 172.35483398 -114.05761719 171.50732422 C-115.11076857 122.69116775 -101.04009005 77.13898093 -67.3125 40.99609375 C-50.16100089 23.0949996 -30.57374989 10.92585105 -8 1 C-7.09636719 0.58621094 -6.19273437 0.17242187 -5.26171875 -0.25390625 C-3 -1 -3 -1 0 0 Z " fill="#E8E8E8" transform="translate(283,192)"/>
<path d="M0 0 C1.65201416 -0.01426025 1.65201416 -0.01426025 3.33740234 -0.02880859 C21.09293495 0.04342274 37.29409323 5.87000055 52.75 14.25 C52.75 14.91 52.75 15.57 52.75 16.25 C53.306875 16.3325 53.86375 16.415 54.4375 16.5 C57.47473832 17.48505027 59.30154906 19.20962422 61.75 21.25 C62.74 21.86875 63.73 22.4875 64.75 23.125 C68.07698615 25.48161519 70.17887554 28.10037254 72.75 31.25 C74.13445312 32.35214844 74.13445312 32.35214844 75.546875 33.4765625 C79.16428548 36.43510333 81.78210375 39.91180756 84.5 43.6875 C84.98082031 44.33009766 85.46164062 44.97269531 85.95703125 45.63476562 C88.72018155 49.42543839 90.32429055 52.74605425 91.75 57.25 C92.7433557 58.25660044 93.74361858 59.25642241 94.75 60.25 C97.66911103 66.6599174 100.04189523 73.41758093 101.75 80.25 C102.00910156 81.23806641 102.00910156 81.23806641 102.2734375 82.24609375 C104.85954636 92.75918848 104.94061117 103.60178861 104.9375 114.375 C104.94104492 115.54699951 104.94458984 116.71899902 104.94824219 117.92651367 C104.9166183 125.61586226 104.49533319 133.1215114 103.11010742 140.69384766 C102.52673775 144.38503629 102.67564493 146.10702284 104.421875 149.46484375 C106.57698664 152.0430226 108.71709425 154.29671897 111.25 156.5 C112.0028125 157.16515625 112.755625 157.8303125 113.53125 158.515625 C115.54809132 160.09216997 117.42017286 161.21216791 119.75 162.25 C119.75 162.91 119.75 163.57 119.75 164.25 C126.73533796 165.81901859 126.73533796 165.81901859 133.75 167.25 C133.75 167.91 133.75 168.57 133.75 169.25 C136.72983024 169.13480819 139.70845792 169.00809198 142.6875 168.875 C143.93370117 168.82859375 143.93370117 168.82859375 145.20507812 168.78125 C153.3946441 168.39885781 160.48470964 167.88876132 166.75 162.25 C168.1613802 161.36649822 169.57871312 160.4924751 171 159.625 C181.83318652 152.43291777 189.26342476 141.62196722 192.625 129.125 C195.44013764 115.11594226 195.106578 98.82134838 188.45703125 85.9921875 C188.22371094 85.41726563 187.99039062 84.84234375 187.75 84.25 C188.08 83.59 188.41 82.93 188.75 82.25 C195.6349806 91.01169503 196.36914741 99.92934461 196.21655273 110.70678711 C196.1877718 112.91663087 196.1959427 115.12403569 196.20898438 117.33398438 C196.17816331 137.42483756 191.59979559 155.75750363 177.4453125 170.6796875 C162.3724916 184.50078625 146.29351194 187.07791593 126.45117188 186.42919922 C121.06677981 186.07199172 116.53995102 184.66377437 111.75 182.25 C110.89792969 181.82589844 110.04585937 181.40179688 109.16796875 180.96484375 C99.50572818 175.63651139 89.94206361 168.23741896 86.75 157.25 C86.37829932 151.59188966 87.30465907 146.29973877 88.25 140.75 C92.54261314 113.43133138 87.35424203 84.94614232 71.515625 61.890625 C69.33982933 58.93454399 67.08686075 56.0799218 64.75 53.25 C64.12609375 52.46238281 63.5021875 51.67476563 62.859375 50.86328125 C47.69498466 32.6086685 24.29751699 21.12360122 0.91015625 18.4921875 C-26.43915328 16.39619592 -50.63883223 25.72087601 -71.25 43.25 C-88.59846768 58.3919853 -100.28462545 80.64010871 -104.25 103.25 C-105.18675507 118.50100229 -104.6389278 133.84286649 -99.25 148.25 C-99.05921875 148.90484375 -98.8684375 149.5596875 -98.671875 150.234375 C-96.86110442 156.40956698 -93.99030993 161.97709387 -91.03051758 167.66625977 C-89.38951586 170.84215565 -88.01819247 173.76052647 -87.25 177.25 C-89.79172139 174.92008873 -91.48722409 172.4563221 -93.25 169.5 C-93.745 168.68015625 -94.24 167.8603125 -94.75 167.015625 C-99.15791105 158.888539 -101.72720089 150.09560389 -104.25 141.25 C-104.57613281 140.11949219 -104.90226563 138.98898437 -105.23828125 137.82421875 C-110.3178208 116.95236666 -108.92413137 92.94702217 -100.25 73.25 C-99.46413767 70.70686218 -98.77443501 68.15485853 -98.09375 65.58203125 C-97.1738873 63.03963296 -95.9102342 61.36581297 -94.25 59.25 C-93.858125 58.26 -93.46625 57.27 -93.0625 56.25 C-85.12238447 37.15300418 -67.53668419 22.51709133 -50.25 12.25 C-49.14269531 11.58871094 -48.03539062 10.92742187 -46.89453125 10.24609375 C-32.08865876 1.85181825 -16.74230959 0.1194708 0 0 Z " fill="#E7E7E7" transform="translate(342.25,231.75)"/>
<path d="M0 0 C4.74715454 0.13208122 7.14692064 1.87389489 10.53515625 5.0546875 C11.75 6.5625 11.75 6.5625 11.75 8.5625 C14.40228812 9.63775194 17.03368454 10.65706151 19.75 11.5625 C19.75 12.2225 19.75 12.8825 19.75 13.5625 C20.3790625 13.74425781 21.008125 13.92601562 21.65625 14.11328125 C25.79906014 15.32991977 29.8703289 16.56808121 33.875 18.1875 C44.22098882 22.11609615 58.29953566 22.11395861 68.75 18.5625 C74.0892822 16.01105675 78.52865351 12.87579201 82.8125 8.8125 C86.27915544 5.59950227 89.11124477 4.60751833 93.76953125 4.046875 C95.85486894 3.72422281 95.85486894 3.72422281 97.20703125 2.046875 C99.32361034 0.01067233 100.72802997 0.09772152 103.625 0.0625 C107.2713313 0.20110324 108.65828506 0.50747104 111.875 2.4375 C114.57097791 6.93079651 114.1769479 10.45359799 113.75 15.5625 C113.70488281 16.51382812 113.65976562 17.46515625 113.61328125 18.4453125 C113.25186859 24.34035463 112.8034442 29.54490314 108.35668945 33.93945312 C106.6402194 35.35426568 104.88058542 36.65588734 103.0625 37.9375 C102.0737085 38.64531616 102.0737085 38.64531616 101.06494141 39.36743164 C79.18861722 54.60650901 53.82873065 60.59376083 27.37890625 56.30859375 C9.96801968 52.72896045 -10.04642868 44.90680013 -21.55078125 30.7265625 C-24.4995664 25.23572118 -23.96237698 19.62849789 -23.25 13.5625 C-22.01592959 9.95267908 -19.93320457 8.09798466 -16.9375 5.75 C-14.25 4.5625 -14.25 4.5625 -10.625 4.0625 C-7.30213153 3.92066118 -7.30213153 3.92066118 -5.8046875 2.06640625 C-3.81818471 0.14478923 -2.73218268 0.07164815 0 0 Z " fill="#E8EAE9" transform="translate(290.25,368.4375)"/>
<path d="M0 0 C2.40515711 1.11232418 3.94675821 2.26264156 6 4 C6 4.66 6 5.32 6 6 C8.65228812 7.07525194 11.28368454 8.09456151 14 9 C14 9.66 14 10.32 14 11 C14.64066406 11.17015625 15.28132813 11.3403125 15.94140625 11.515625 C21.53365365 13.08245437 26.0344236 15.02065416 31 18 C43.01108194 21.78745855 57.68740979 19.71071065 69.1015625 15.09375 C72 14 72 14 76 14 C76 13.34 76 12.68 76 12 C77.90625 10.73828125 77.90625 10.73828125 80.5 9.3125 C84.19900697 7.21067326 87.07419838 5.08098648 90.0625 2.0625 C92.24803336 0.05872499 93.40762928 -0.90962171 96.35546875 -1.359375 C99.9904489 -1.09846288 102.44626557 -0.33764295 105.5625 1.5625 C107.21220725 4.35982968 107.82360285 6.6706043 107.61328125 9.93359375 C106.30764554 14.33283764 102.60693197 16.45968934 99 19 C98.44763672 19.40041504 97.89527344 19.80083008 97.32617188 20.21337891 C80.65295186 32.24165926 62.52194421 37.17004076 41.9375 37.1875 C41.17373047 37.19974609 40.40996094 37.21199219 39.62304688 37.22460938 C34.7235998 37.23718281 30.69887142 36.53554343 26 35 C24.83339844 34.69320312 23.66679687 34.38640625 22.46484375 34.0703125 C21.30082031 33.75835937 20.13679688 33.44640625 18.9375 33.125 C17.77089844 32.81820312 16.60429687 32.51140625 15.40234375 32.1953125 C11.78489844 30.92443045 9.12644319 29.19376476 6 27 C4.824375 26.525625 3.64875 26.05125 2.4375 25.5625 C-1.33347238 23.84842165 -3.12380156 21.94467936 -6 19 C-7.59633322 18.04922285 -9.20114216 17.11258532 -10.8125 16.1875 C-14.77316116 13.62627245 -14.77316116 13.62627245 -15.71875 11.015625 C-15.88993342 7.2210593 -15.18920054 5.29641418 -13.125 2.0625 C-9.00937485 -1.93207735 -5.34162547 -1.18106292 0 0 Z " fill="#47B097" transform="translate(296,371)"/>
<path d="M0 0 C0.33 0 0.66 0 1 0 C0.98952637 1.04752441 0.97905273 2.09504883 0.96826172 3.17431641 C0.93155817 7.12919582 0.90891997 11.08406081 0.89013672 15.0390625 C0.88019214 16.73798164 0.86663169 18.43688419 0.84912109 20.13574219 C0.71101274 33.89783382 1.12040424 46.9545501 6 60 C6.19078125 60.65484375 6.3815625 61.3096875 6.578125 61.984375 C8.38889558 68.15956698 11.25969007 73.72709387 14.21948242 79.41625977 C15.86048414 82.59215565 17.23180753 85.51052647 18 89 C15.45827861 86.67008873 13.76277591 84.2063221 12 81.25 C11.505 80.43015625 11.01 79.6103125 10.5 78.765625 C6.09208895 70.638539 3.52279911 61.84560389 1 53 C0.67386719 51.86949219 0.34773437 50.73898437 0.01171875 49.57421875 C-2.04373445 41.12835181 -2.27675952 32.91501668 -2.3125 24.25 C-2.31805908 23.11328857 -2.32361816 21.97657715 -2.3293457 20.80541992 C-2.26857104 13.67296775 -1.53129149 6.96663124 0 0 Z " fill="#C0CAC8" transform="translate(237,320)"/>
<path d="M0 0 C-1.30532548 3.91597644 -2.97265274 4.53830346 -6.4375 6.6875 C-7.42621094 7.31011719 -8.41492188 7.93273437 -9.43359375 8.57421875 C-12 10 -12 10 -14 10 C-14 10.66 -14 11.32 -14 12 C-27.60525147 17.27871189 -43.69069437 21.72276395 -58.1328125 16.96875 C-59.05707031 16.48921875 -59.05707031 16.48921875 -60 16 C-57.32975173 14.66487586 -55.40727359 15.33822088 -52.53515625 15.734375 C-39.1948129 17.13213054 -28.00429487 15.93458129 -17 8 C-14.83255694 6.19686401 -12.73966593 4.3550494 -10.69140625 2.41796875 C-7.37523075 -0.36210448 -4.13146081 -0.09181024 0 0 Z " fill="#E6F3F0" transform="translate(386,373)"/>
<path d="M0 0 C0.33 0 0.66 0 1 0 C1.09765625 6.15234375 1.09765625 6.15234375 1 8 C0.67 8.33 0.34 8.66 0 9 C-0.24879945 11.88115906 -0.43074952 14.73762713 -0.5625 17.625 C-0.6035083 18.51292236 -0.6445166 19.40084473 -0.68676758 20.31567383 C-2.10827152 46.61009249 -2.10827152 46.61009249 2 72.44140625 C3.12395726 76.44111354 3.66534811 80.31947118 4.125 84.4375 C4.21136719 85.16904297 4.29773438 85.90058594 4.38671875 86.65429688 C4.59628393 88.43560094 4.79887868 90.21772281 5 92 C1.77507875 88.77507875 1.45879626 84.54240421 0.4375 80.1875 C0.21642578 79.30384766 -0.00464844 78.42019531 -0.23242188 77.50976562 C-3.47464693 63.88458422 -3.15951696 50.04219452 -3.13037109 36.12280273 C-3.12496878 33.04471 -3.13036663 29.96676042 -3.13671875 26.88867188 C-3.13605862 24.91666635 -3.1347788 22.94466091 -3.1328125 20.97265625 C-3.13483673 20.0600856 -3.13686096 19.14751495 -3.13894653 18.20729065 C-3.12236193 13.69031822 -2.91966243 9.44533951 -2 5 C-1.34 5 -0.68 5 0 5 C0 3.35 0 1.7 0 0 Z " fill="#778985" transform="translate(187,306)"/>
<path d="M0 0 C1.58357459 0.31127516 3.16684993 0.62407289 4.75 0.9375 C5.63171875 1.11152344 6.5134375 1.28554688 7.421875 1.46484375 C9.63235053 1.92368488 11.81512068 2.43336074 14 3 C14 3.66 14 4.32 14 5 C14.60585938 5.06058594 15.21171875 5.12117188 15.8359375 5.18359375 C19.40364583 5.54036458 22.97135417 5.89713542 26.5390625 6.25390625 C27.35117187 6.33511719 28.16328125 6.41632813 29 6.5 C29.82757813 6.58894531 30.65515625 6.67789062 31.5078125 6.76953125 C33.1445942 6.92089507 34.78668826 7.02403067 36.4296875 7.07421875 C44.61688956 7.45349808 52.05400004 10.43655659 58.17578125 15.96484375 C59.91681775 17.90719924 61.48212103 19.88005731 63 22 C63.63035156 22.84304688 63.63035156 22.84304688 64.2734375 23.703125 C68.03292072 28.98239931 68.14030471 33.41789327 68.0625 39.75 C68.05798828 40.44738281 68.05347656 41.14476562 68.04882812 41.86328125 C68.0371002 43.57555803 68.01916653 45.28779033 68 47 C67.67 47 67.34 47 67 47 C66.90203125 45.9378125 66.8040625 44.875625 66.703125 43.78125 C65.62436192 33.16064537 64.17490978 25.22518563 56.13671875 17.60546875 C48.97657531 12.22554379 40.67822803 9.98993327 31.9375 9.0625 C25.5459207 8.35300282 19.27316404 7.44883887 13 6 C13 5.34 13 4.68 13 4 C11.783125 3.87625 10.56625 3.7525 9.3125 3.625 C5.93520941 3.21108694 3.10243305 2.45426549 0 1 C0 0.67 0 0.34 0 0 Z " fill="#D0D8D6" transform="translate(319,446)"/>
<path d="M0 0 C3.690959 1.23031967 4.40627699 2.591885 6.6875 5.6875 C9.83024186 9.7447045 12.89362767 12.78785665 17.140625 15.6484375 C19 17 19 17 20.5859375 19.14453125 C24.47001467 22.12986565 28.6213887 21.37673799 33.375 21.3125 C43.58986955 21.4259612 50.44076111 23.40582168 59 29 C57.1328125 29.578125 57.1328125 29.578125 55 30 C53.32470102 29.01453001 51.66026356 28.01059521 50 27 C44.65594978 24.64946114 39.98275466 23.888265 34.1418457 24.20385742 C26.29268741 24.61396373 21.53939574 23.50795494 15.3984375 18.2890625 C14.21121094 17.15597656 14.21121094 17.15597656 13 16 C12.24976563 15.30648438 11.49953125 14.61296875 10.7265625 13.8984375 C6.86562914 10.18103326 3.24845198 6.26359323 0 2 C0 1.34 0 0.68 0 0 Z " fill="#D4DCDA" transform="translate(260,416)"/>
<path d="M0 0 C4.455 1.98 4.455 1.98 9 4 C9 4.66 9 5.32 9 6 C10.175625 6.4640625 10.175625 6.4640625 11.375 6.9375 C14 8 14 8 16 9 C16 9.66 16 10.32 16 11 C16.57105469 11.26554688 17.14210938 11.53109375 17.73046875 11.8046875 C24.37070777 15.30195624 29.65680029 20.41892856 34.42578125 26.1328125 C36.4844201 28.57457272 38.70846289 30.77790341 41 33 C40.505 33.99 40.505 33.99 40 35 C39.55309814 34.5373877 39.10619629 34.07477539 38.64575195 33.59814453 C27.26970344 21.87701429 16.17694988 11.05702823 1.73046875 3.15625 C1.15941406 2.7746875 0.58835937 2.393125 0 2 C0 1.34 0 0.68 0 0 Z " fill="#D0D8D6" transform="translate(420,201)"/>
<path d="M0 0 C0.33 0.66 0.66 1.32 1 2 C1.66 2 2.32 2 3 2 C3.04966189 6.44741318 3.08584293 10.8946768 3.10986328 15.34228516 C3.11988339 16.85338149 3.13350321 18.36445862 3.15087891 19.87548828 C3.17530392 22.05506142 3.18652307 24.23437684 3.1953125 26.4140625 C3.20578613 27.7232666 3.21625977 29.0324707 3.22705078 30.38134766 C3.00366763 33.9415466 2.2935223 36.69234262 1 40 C0.67 40 0.34 40 0 40 C0 26.8 0 13.6 0 0 Z " fill="#69807A" transform="translate(446,327)"/>
<path d="M0 0 C4.65481233 3.65735254 6.56744636 8.40055449 8 14 C8.63131735 19.84829435 8.37959959 25.75511685 8.25 31.625 C8.22989608 33.21742535 8.21165221 34.80987533 8.1953125 36.40234375 C8.15164294 40.26884689 8.08283518 44.13414576 8 48 C6.515 48.495 6.515 48.495 5 49 C5.2475 47.2984375 5.2475 47.2984375 5.5 45.5625 C7.02012995 31.59492912 7.22097086 16.52792004 0.8046875 3.7421875 C0 2 0 2 0 0 Z " fill="#B7BFBD" transform="translate(530,314)"/>
<path d="M0 0 C0.66 0.33 1.32 0.66 2 1 C-4.27 7.27 -10.54 13.54 -17 20 C-17.99 19.67 -18.98 19.34 -20 19 C-14.3040694 12.09633626 -8.02017326 6.52730689 -1 1 C-0.67 0.67 -0.34 0.34 0 0 Z " fill="#CBCFCE" transform="translate(282,250)"/>
<path d="M0 0 C3.75376152 1.25125384 4.24073289 2.5652404 6 6 C6 6.66 6 7.32 6 8 C6.66 8 7.32 8 8 8 C8.95921722 9.74951568 9.91733817 11.49963244 10.875 13.25 C11.67550781 14.71179688 11.67550781 14.71179688 12.4921875 16.203125 C12.98976563 17.12609375 13.48734375 18.0490625 14 19 C14.39445312 19.71671875 14.78890625 20.4334375 15.1953125 21.171875 C16 23 16 23 16 26 C16.66 26 17.32 26 18 26 C18.33 27.98 18.66 29.96 19 32 C15.79038306 28.27768714 13.66332048 24.55952636 11.5625 20.125 C9.10851568 15.02984619 6.39078344 10.52104459 3 6 C3 5.34 3 4.68 3 4 C2.34 4 1.68 4 1 4 C0.67 2.68 0.34 1.36 0 0 Z " fill="#D7DDDC" transform="translate(467,244)"/>
<path d="M0 0 C3.58789719 3.58789719 5 6.94858535 5 12 C6.01320313 12.09087891 6.01320313 12.09087891 7.046875 12.18359375 C7.93890625 12.26738281 8.8309375 12.35117187 9.75 12.4375 C10.63171875 12.51871094 11.5134375 12.59992188 12.421875 12.68359375 C14.69350452 12.96238465 16.79851823 13.38790577 19 14 C19 14.66 19 15.32 19 16 C19.7425 16.12375 20.485 16.2475 21.25 16.375 C23.80141485 16.95486701 25.7267573 17.73708739 28 19 C27.67 19.66 27.34 20.32 27 21 C22.05 19.02 22.05 19.02 17 17 C17 16.34 17 15.68 17 15 C16.10796875 14.97164063 15.2159375 14.94328125 14.296875 14.9140625 C10.62348662 14.61468944 7.4870733 14.2112084 4 13 C0.95817856 9.09102234 0 4.8934223 0 0 Z " fill="#D0D8D6" transform="translate(486,276)"/>
<path d="M0 0 C0.33 0 0.66 0 1 0 C1.07516846 0.61931396 1.15033691 1.23862793 1.2277832 1.87670898 C1.57981841 4.7315735 1.94606979 7.58444884 2.3125 10.4375 C2.43044922 11.41138672 2.54839844 12.38527344 2.66992188 13.38867188 C3.39694487 18.96251481 4.46310307 23.99453546 6.50073242 29.24243164 C7 31 7 31 6 33 C0.50410438 22.1949625 -0.34362605 12.00782154 0 0 Z " fill="#DCE0DF" transform="translate(236,349)"/>
<path d="M0 0 C5.28 1.32 10.56 2.64 16 4 C16 4.66 16 5.32 16 6 C16.886875 6.12375 17.77375 6.2475 18.6875 6.375 C21.70387502 6.94412736 24.20326054 7.76614436 27 9 C27 9.66 27 10.32 27 11 C19.38528638 8.92785448 12.24587696 6.10537584 5 3 C3.33538276 2.32823244 1.66937893 1.65984559 0 1 C0 0.67 0 0.34 0 0 Z " fill="#C8D2CF" transform="translate(383,185)"/>
<path d="M0 0 C-2.56126064 1.294174 -5.12393358 2.58540784 -7.6875 3.875 C-8.40873047 4.23980469 -9.12996094 4.60460937 -9.87304688 4.98046875 C-13.53125364 6.8179242 -17.1611695 8.56138502 -21 10 C-20.3231083 7.63350267 -19.4861003 6.30140862 -17.38330078 4.99755859 C-15.30091524 3.99011892 -13.19829121 3.07600417 -11.0625 2.1875 C-10.33353516 1.86330078 -9.60457031 1.53910156 -8.85351562 1.20507812 C-3.39468487 -1.13156162 -3.39468487 -1.13156162 0 0 Z " fill="#EEF0F0" transform="translate(283,192)"/>
<path d="M0 0 C4.59049756 3.60681951 6.3961213 8.5451417 8 14 C8.27848383 16.45849004 8.2155021 18.52172587 8 21 C5.58829402 18.58829402 5.35714765 17.03633943 4.5625 13.75 C3.47155 9.50308751 2.0865491 5.87501976 0 2 C0 1.34 0 0.68 0 0 Z " fill="#DAE0DE" transform="translate(530,314)"/>
<path d="M0 0 C0.33 0 0.66 0 1 0 C1.25830258 7.74907749 1.25830258 7.74907749 -1 12 C-1.4697113 14.6634179 -1.73055048 17.30550475 -2 20 C-2.33 20 -2.66 20 -3 20 C-3.10251672 14.87416389 -3.03590199 10.05002222 -2 5 C-1.34 5 -0.68 5 0 5 C0 3.35 0 1.7 0 0 Z " fill="#ADB5B3" transform="translate(187,306)"/>
<path d="M0 0 C1.07310858 3.27185553 0.89263102 5.42947592 0.0625 8.75 C-0.22947266 9.94882812 -0.22947266 9.94882812 -0.52734375 11.171875 C-0.68332031 11.77515625 -0.83929688 12.3784375 -1 13 C-1.66 13 -2.32 13 -3 13 C-3.33 13.99 -3.66 14.98 -4 16 C-3.6083965 10.04492601 -2.62875405 5.37180176 0 0 Z " fill="#8A9B97" transform="translate(192,289)"/>
<path d="M0 0 C10.55808656 1.74259681 10.55808656 1.74259681 15 5 C13.3125 5.6875 13.3125 5.6875 11 6 C9.29883624 5.05988318 7.63495707 4.05104383 6 3 C4.01548229 2.28856912 2.01797888 1.61008664 0 1 C0 0.67 0 0.34 0 0 Z " fill="#BDC9C7" transform="translate(304,440)"/>
<path d="M0 0 C0.66 0 1.32 0 2 0 C0.95125002 2.62187494 0.35068687 3.79371361 -2.125 5.25 C-2.74375 5.4975 -3.3625 5.745 -4 6 C-4 6.66 -4 7.32 -4 8 C-4.66 7.67 -5.32 7.34 -6 7 C-5.04882866 5.8274869 -4.08882991 4.66212985 -3.125 3.5 C-2.59132813 2.8503125 -2.05765625 2.200625 -1.5078125 1.53125 C-0.76144531 0.77328125 -0.76144531 0.77328125 0 0 Z " fill="#B6BEBC" transform="translate(270,260)"/>
</svg>
